{"asset":{"version":"2.0","generator":"THREE.GLTFExporter"},"scenes":[{"name":"AuxScene","nodes":[4]}],"scene":0,"nodes":[{"name":"Cylinder001","mesh":0},{"name":"Cylinder001_1","mesh":1},{"name":"Cylinder001_2","mesh":2},{"matrix":[1,0,0,0,0,-1.3435885648505064e-7,0.9999999657714511,0,0,-0.9999999657714511,-1.3435885648505064e-7,0,0,0,0,1],"name":"arrow_teamBlue","extras":{"name":"arrow_teamBlue"},"children":[0,1,2]},{"name":"Scene","children":[3]}],"bufferViews":[{"buffer":0,"byteOffset":0,"byteLength":588,"target":34962,"byteStride":12},{"buffer":0,"byteOffset":588,"byteLength":588,"target":34962,"byteStride":12},{"buffer":0,"byteOffset":1176,"byteLength":392,"target":34962,"byteStride":8},{"buffer":0,"byteOffset":1568,"byteLength":144,"target":34963},{"buffer":0,"byteOffset":1712,"byteLength":636,"target":34962,"byteStride":12},{"buffer":0,"byteOffset":2348,"byteLength":636,"target":34962,"byteStride":12},{"buffer":0,"byteOffset":2984,"byteLength":424,"target":34962,"byteStride":8},{"buffer":0,"byteOffset":3408,"byteLength":420,"target":34963},{"buffer":0,"byteOffset":3828,"byteLength":1224,"target":34962,"byteStride":12},{"buffer":0,"byteOffset":5052,"byteLength":1224,"target":34962,"byteStride":12},{"buffer":0,"byteOffset":6276,"byteLength":816,"target":34962,"byteStride":8},{"buffer":0,"byteOffset":7092,"byteLength":432,"target":34963}],"buffers":[{"byteLength":7524,"uri":"data:application/octet-stream;base64,"}],"accessors":[{"bufferView":0,"componentType":5126,"count":49,"max":[0.07402753829956055,0.07402760535478592,0.5322625041007996],"min":[-0.07402769476175308,-0.0740276351571083,0.3736999034881592],"type":"VEC3"},{"bufferView":1,"componentType":5126,"count":49,"max":[0.8989967107772827,0.8989967107772827,1],"min":[-0.8989966511726379,-0.8989965319633484,-0.6357840299606323],"type":"VEC3"},{"bufferView":2,"componentType":5126,"count":49,"max":[1,0.5],"min":[0,0.5],"type":"VEC2"},{"bufferView":3,"componentType":5123,"count":72,"max":[48],"min":[0],"type":"SCALAR"},{"bufferView":4,"componentType":5126,"count":53,"max":[0.04574008285999298,0.04574015736579895,0.37369993329048157],"min":[-0.04574025049805641,-0.04574017971754074,-0.6307129263877869],"type":"VEC3"},{"bufferView":5,"componentType":5126,"count":53,"max":[0.9566878080368042,0.9566877484321594,-0.13797205686569214],"min":[-0.9566878080368042,-0.9566877484321594,-0.9409423470497131],"type":"VEC3"},{"bufferView":6,"componentType":5126,"count":53,"max":[1,0.9900000095367432],"min":[0,0],"type":"VEC2"},{"bufferView":7,"componentType":5123,"count":210,"max":[52],"min":[0],"type":"SCALAR"},{"bufferView":8,"componentType":5126,"count":102,"max":[0.1782570779323578,0.20583362877368927,-0.2791348993778229],"min":[-0.17825724184513092,-0.10317570716142654,-0.7039470076560974],"type":"VEC3"},{"bufferView":9,"componentType":5126,"count":102,"max":[0.9907469749450684,0.7902805209159851,0.663990318775177],"min":[-0.9907469749450684,-1,-0.7971072793006897],"type":"VEC3"},{"bufferView":10,"componentType":5126,"count":102,"max":[0.875,1],"min":[0.125,0],"type":"VEC2"},{"bufferView":11,"componentType":5123,"count":216,"max":[101],"min":[0],"type":"SCALAR"}],"materials":[{"pbrMetallicRoughness":{"baseColorFactor":[0.4,0.47843137254901963,0.5137254901960784,1],"metallicFactor":0.20000000298023224,"roughnessFactor":0.30000001192092896},"alphaMode":"BLEND","name":"Metal.004"},{"pbrMetallicRoughness":{"baseColorFactor":[0.3254901960784314,0.09803921568627451,0.058823529411764705,1],"metallicFactor":0,"roughnessFactor":0.4000000059604645},"alphaMode":"BLEND","name":"BrownDark.006"},{"pbrMetallicRoughness":{"baseColorFactor":[1,0.0196078431372549,0.047058823529411764,1],"metallicFactor":0,"roughnessFactor":1},"alphaMode":"BLEND","name":"Blue.003"}],"meshes":[{"primitives":[{"mode":4,"attributes":{"POSITION":0,"NORMAL":1,"TEXCOORD_0":2},"indices":3,"material":0}]},{"primitives":[{"mode":4,"attributes":{"POSITION":4,"NORMAL":5,"TEXCOORD_0":6},"indices":7,"material":1}]},{"primitives":[{"mode":4,"attributes":{"POSITION":8,"NORMAL":9,"TEXCOORD_0":10},"indices":11,"material":2}]}]}