{"asset":{"version":"2.0","generator":"THREE.GLTFExporter"},"scenes":[{"name":"AuxScene","nodes":[3]}],"scene":0,"nodes":[{"name":"Mesh_loafBaguette","mesh":0},{"name":"Mesh_loafBaguette_1","mesh":1},{"name":"loafBaguette","extras":{"name":"loafBaguette"},"children":[0,1]},{"children":[2]}],"bufferViews":[{"buffer":0,"byteOffset":0,"byteLength":576,"target":34962,"byteStride":12},{"buffer":0,"byteOffset":576,"byteLength":576,"target":34962,"byteStride":12},{"buffer":0,"byteOffset":1152,"byteLength":384,"target":34962,"byteStride":8},{"buffer":0,"byteOffset":1536,"byteLength":288,"target":34963},{"buffer":0,"byteOffset":1824,"byteLength":2112,"target":34962,"byteStride":12},{"buffer":0,"byteOffset":3936,"byteLength":2112,"target":34962,"byteStride":12},{"buffer":0,"byteOffset":6048,"byteLength":1408,"target":34962,"byteStride":8},{"buffer":0,"byteOffset":7456,"byteLength":1224,"target":34963}],"buffers":[{"byteLength":8680,"uri":"data:application/octet-stream;base64,"}],"accessors":[{"bufferView":0,"componentType":5126,"count":48,"max":[0.17553558945655823,0.24996070563793182,0.11174023151397705],"min":[-0.17553558945655823,0.20999999344348907,-0.11173106729984283],"type":"VEC3"},{"bufferView":1,"componentType":5126,"count":48,"max":[0.8548672199249268,0.7781191468238831,0.23203547298908234],"min":[-0.8548672199249268,0.46407070755958557,-0.23203535377979279],"type":"VEC3"},{"bufferView":2,"componentType":5126,"count":48,"max":[5.752552509307861,-0.6744976043701172],"min":[-5.752552509307861,-10.481390953063965],"type":"VEC2"},{"bufferView":3,"componentType":5125,"count":72,"max":[47],"min":[0],"type":"SCALAR"},{"bufferView":4,"componentType":5126,"count":176,"max":[0.41499999165534973,0.2501758635044098,0.1251758635044098],"min":[-0.41499999165534973,0,-0.125],"type":"VEC3"},{"bufferView":5,"componentType":5126,"count":176,"max":[1,1,1],"min":[-1,-1,-1],"type":"VEC3"},{"bufferView":6,"componentType":5126,"count":176,"max":[16.33858299255371,12.51600456237793],"min":[-16.33858299255371,-6.7453179359436035],"type":"VEC2"},{"bufferView":7,"componentType":5125,"count":306,"max":[175],"min":[0],"type":"SCALAR"}],"materials":[{"pbrMetallicRoughness":{"baseColorFactor":[0.9137254901960784,0.7294117647058823,0.5254901960784314,1],"metallicFactor":1,"roughnessFactor":1},"alphaMode":"BLEND","name":"brownLight"},{"pbrMetallicRoughness":{"baseColorFactor":[0.43137254901960786,0.23921568627450981,0.11372549019607843,1],"metallicFactor":1,"roughnessFactor":1},"alphaMode":"BLEND","name":"brown"}],"meshes":[{"primitives":[{"mode":4,"attributes":{"POSITION":0,"NORMAL":1,"TEXCOORD_0":2},"indices":3,"material":0}]},{"primitives":[{"mode":4,"attributes":{"POSITION":4,"NORMAL":5,"TEXCOORD_0":6},"indices":7,"material":1}]}]}