{"asset":{"version":"2.0","generator":"THREE.GLTFExporter"},"scenes":[{"name":"AuxScene","nodes":[1]}],"scene":0,"nodes":[{"matrix":[0.6899999976158142,0,0,0,0,0.6899999976158142,0,0,0,0,0.6899999976158142,0,0.6374151706695557,0,-6.409544467926025,1],"name":"plant","extras":{"name":"plant"},"mesh":0},{"name":"Scene","children":[0]}],"bufferViews":[{"buffer":0,"byteOffset":0,"byteLength":2160,"target":34962,"byteStride":12},{"buffer":0,"byteOffset":2160,"byteLength":2160,"target":34962,"byteStride":12},{"buffer":0,"byteOffset":4320,"byteLength":1440,"target":34962,"byteStride":8},{"buffer":0,"byteOffset":5760,"byteLength":720,"target":34963}],"buffers":[{"byteLength":6480,"uri":"data:application/octet-stream;base64,"}],"accessors":[{"bufferView":0,"componentType":5126,"count":180,"max":[0.46765372157096863,0.6072416305541992,0.41949814558029175],"min":[-0.46765372157096863,0,-0.4193999767303467],"type":"VEC3"},{"bufferView":1,"componentType":5126,"count":180,"max":[0.9588967561721802,0.9953687191009521,0.8296145796775818],"min":[-0.9588967561721802,-0.9953688979148865,-0.8296145796775818],"type":"VEC3"},{"bufferView":2,"componentType":5126,"count":180,"max":[16.493669509887695,33.02141571044922],"min":[-16.511812210083008,-54.22563171386719],"type":"VEC2"},{"bufferView":3,"componentType":5125,"count":180,"max":[179],"min":[0],"type":"SCALAR"}],"materials":[{"pbrMetallicRoughness":{"baseColorFactor":[0.00392156862745098,0.18823529411764706,0.0392156862745098,1],"metallicFactor":0,"roughnessFactor":1},"alphaMode":"BLEND","name":"leaves.005"}],"meshes":[{"primitives":[{"mode":4,"attributes":{"POSITION":0,"NORMAL":1,"TEXCOORD_0":2},"indices":3,"material":0}]}]}