 <svg
      viewBox="0 0 760.000000 161.000000"
      preserveAspectRatio="xMidYMid meet"
    >
      <g
        transform="translate(0.000000,161.000000) scale(0.100000,-0.100000)"
        fill='currentColor'
        stroke="none">
        <path
          d="M4005 1153 c-38 -1 -227 -7 -420 -13 -467 -14 -692 -25 -1184 -60
-228 -17 -459 -30 -515 -30 -113 0 -292 -15 -796 -65 -682 -69 -875 -95 -901
-123 -25 -25 -31 -56 -16 -76 12 -16 22 -17 115 -8 106 11 125 8 204 -27 79
-36 220 -51 478 -51 129 0 285 4 345 10 262 22 1186 60 1488 60 167 0 225 -13
105 -24 -102 -9 -660 -36 -968 -46 -157 -5 -404 -15 -550 -21 -146 -6 -402 -9
-570 -8 l-305 4 -3 -24 c-7 -45 7 -67 57 -94 80 -44 139 -50 360 -38 108 7
282 19 386 27 223 19 585 21 630 4 17 -6 44 -24 60 -39 55 -51 97 -56 475 -56
190 0 626 4 970 9 628 8 1384 -2 1760 -24 96 -6 332 -19 524 -31 192 -11 360
-18 373 -14 18 4 23 12 23 36 0 44 -34 87 -78 98 -20 5 -145 12 -277 15 -436
12 -727 27 -998 52 -148 13 -377 31 -510 39 -133 8 -262 18 -286 21 -117 17
29 24 539 24 727 0 1115 -10 2235 -55 77 -3 248 -15 379 -26 219 -19 240 -19
255 -4 14 14 14 18 1 42 -32 56 -49 61 -285 77 -121 8 -295 18 -387 22 l-168
6 -10 38 c-21 78 -29 82 -191 91 -965 56 -2279 68 -3164 29 -132 -5 -449 -17
-705 -25 -256 -8 -643 -23 -860 -34 -603 -30 -710 -33 -710 -22 0 14 30 18
350 46 554 48 1599 104 2315 125 198 5 409 12 469 14 194 8 1878 -26 1973 -40
35 -5 43 -3 53 15 15 29 -12 86 -48 100 -88 33 -1611 90 -2017 74z m45 -363
c0 -5 -24 -10 -52 -10 -29 0 -251 -7 -493 -15 -550 -18 -515 -18 -515 0 0 12
21 15 128 16 70 1 242 5 382 9 426 11 550 11 550 0z"
        />
      </g>
    </svg>