<svg  viewBox="0 0 80 80" fill="none" xmlns="http://www.w3.org/2000/svg">
<path d="M50.5993 58.9901C54.0238 58.9901 56.7994 56.1862 56.7994 52.7274C56.7994 49.2688 54.0238 46.4649 50.5993 46.4649C47.1749 46.4649 44.3993 49.2688 44.3993 52.7274C44.3993 56.1862 47.1749 58.9901 50.5993 58.9901Z" fill="#00A0FF"/>
<path d="M6.99984 14.1413C10.2032 14.1413 12.7998 11.6088 12.7998 8.48474C12.7998 5.3607 10.2032 2.82816 6.99984 2.82816C3.7965 2.82816 1.19983 5.3607 1.19983 8.48474C1.19983 11.6088 3.7965 14.1413 6.99984 14.1413Z" fill="#00A0FF"/>
<path d="M28.4004 16.1621C32.5982 16.1621 36.0004 12.7251 36.0004 8.48535C36.0004 4.24558 32.5982 0.808563 28.4004 0.808563C24.2026 0.808563 20.8004 4.24558 20.8004 8.48535C20.8004 12.7251 24.2026 16.1621 28.4004 16.1621Z" fill="#00A0FF"/>
<path d="M50.0002 12.5248C52.2091 12.5248 54.0002 10.7158 54.0002 8.48436C54.0002 6.2529 52.2091 4.44394 50.0002 4.44394C47.7913 4.44394 46.0001 6.2529 46.0001 8.48436C46.0001 10.7158 47.7913 12.5248 50.0002 12.5248Z" fill="#00A0FF"/>
<path d="M71.6 16.9697C76.2389 16.9697 80 13.1709 80 8.48488C80 3.79881 76.2389 0 71.6 0C66.9611 0 63.2 3.79881 63.2 8.48488C63.2 13.1709 66.9611 16.9697 71.6 16.9697Z" fill="#00A0FF"/>
<path d="M6.99999 37.172C10.8655 37.172 14 34.0063 14 30.1013C14 26.1962 10.8655 23.0305 6.99999 23.0305C3.13443 23.0305 0 26.1962 0 30.1013C0 34.0063 3.13443 37.172 6.99999 37.172Z" fill="#00A0FF"/>
<path d="M28.5991 35.9599C31.8024 35.9599 34.3991 33.337 34.3991 30.1013C34.3991 26.8658 31.8024 24.2428 28.5991 24.2428C25.3957 24.2428 22.7991 26.8658 22.7991 30.1013C22.7991 33.337 25.3957 35.9599 28.5991 35.9599Z" fill="#00A0FF"/>
<path d="M50.2 33.1314C51.8566 33.1314 53.2 31.7747 53.2 30.101C53.2 28.4275 51.8566 27.0708 50.2 27.0708C48.5433 27.0708 47.2 28.4275 47.2 30.101C47.2 31.7747 48.5433 33.1314 50.2 33.1314Z" fill="#00A0FF"/>
<path d="M71.6004 33.9391C73.5881 33.9391 75.2003 32.2206 75.2003 30.1007C75.2003 27.9808 73.5881 26.2624 71.6004 26.2624C69.6126 26.2624 68.0004 27.9808 68.0004 30.1007C68.0004 32.2206 69.6126 33.9391 71.6004 33.9391Z" fill="#00A0FF"/>
<path d="M28.3999 55.3539C30.1677 55.3539 31.5999 53.9067 31.5999 52.1216C31.5999 50.3363 30.1677 48.8892 28.3999 48.8892C26.6321 48.8892 25.1998 50.3363 25.1998 52.1216C25.1998 53.9067 26.6321 55.3539 28.3999 55.3539Z" fill="#00A0FF"/>
<path d="M71.7997 58.9903C75.6653 58.9903 78.7997 55.8246 78.7997 51.9196C78.7997 48.0146 75.6653 44.8489 71.7997 44.8489C67.9341 44.8489 64.7997 48.0146 64.7997 51.9196C64.7997 55.8246 67.9341 58.9903 71.7997 58.9903Z" fill="#00A0FF"/>
<path d="M6.99954 77.9803C9.31953 77.9803 11.1995 76.0809 11.1995 73.7379C11.1995 71.3948 9.31953 69.4954 6.99954 69.4954C4.67955 69.4954 2.79956 71.3948 2.79956 73.7379C2.79956 76.0809 4.67955 77.9803 6.99954 77.9803Z" fill="#00A0FF"/>
<path d="M28.3991 80C31.9336 80 34.7991 77.1961 34.7991 73.7373C34.7991 70.2786 31.9336 67.4747 28.3991 67.4747C24.8647 67.4747 21.9991 70.2786 21.9991 73.7373C21.9991 77.1961 24.8647 80 28.3991 80Z" fill="#00A0FF"/>
<path d="M50.2 76.7681C51.8566 76.7681 53.2 75.4114 53.2 73.7377C53.2 72.0642 51.8566 70.7075 50.2 70.7075C48.5433 70.7075 47.2 72.0642 47.2 73.7377C47.2 75.4114 48.5433 76.7681 50.2 76.7681Z" fill="#00A0FF"/>
<path d="M71.6006 79.5967C74.6928 79.5967 77.2006 76.9737 77.2006 73.7381C77.2006 70.5025 74.6928 67.8795 71.6006 67.8795C68.5073 67.8795 66.0006 70.5025 66.0006 73.7381C66.0006 76.9737 68.5073 79.5967 71.6006 79.5967Z" fill="#00A0FF"/>
<path d="M6.99952 54.9498C8.6562 54.9498 9.99956 53.5931 9.99956 51.9196C9.99956 50.2459 8.6562 48.8892 6.99952 48.8892C5.34284 48.8892 3.99951 50.2459 3.99951 51.9196C3.99951 53.5931 5.34284 54.9498 6.99952 54.9498Z" fill="#00A0FF"/>
</svg>
