<?xml version="1.0" encoding="utf-8"?>
<!-- Generator: Adobe Illustrator 16.0.3, SVG Export Plug-In . SVG Version: 6.00 Build 0)  -->
<!DOCTYPE svg PUBLIC "-//W3C//DTD SVG 1.1//EN" "http://www.w3.org/Graphics/SVG/1.1/DTD/svg11.dtd">
<svg version="1.1" id="Layer_2" xmlns="http://www.w3.org/2000/svg" xmlns:xlink="http://www.w3.org/1999/xlink" x="0px" y="0px"
	viewBox="0 0 474.284 77.57" style="enable-background:new 0 0 474.284 77.57;"
	 xml:space="preserve">
<g>
	<g>
		<path style="fill:#00583D;" d="M291.251,55.775h-7.125l3.387-9.36L291.251,55.775L291.251,55.775z M291.718,57.432
			c0.945,2.518,2.311,5.899,2.311,7.413c0,1.623-1.506,2.02-2.777,2.304v0.542h10.59v-0.542c-2.885-0.54-3.496-1.583-4.465-4.209
			l-7.914-21.097c-0.764,0.899-1.658,1.545-2.629,1.945c0.389,0.684-0.078,1.547-0.398,2.481l-2.16,5.87l-4.066,10.616
			c-1.117,2.811-1.441,3.533-4.646,4.394v0.542h9.863v-0.542c-1.621-0.251-4.104-0.251-4.104-2.445c0-1.727,1.58-5.473,2.193-7.271
			H291.718L291.718,57.432z"/>
		<path style="fill:#00583D;" d="M319.144,63.175l-0.133-10.501c-0.027-2.734-0.738-3.542-3.826-4.118v-0.43h7.455v0.43
			c-1.887,0.26-2.242,1.353-2.457,3.222c-0.387,3.166-0.244,10.101-0.111,16.377l-0.354,0.085
			c-4.367-5.442-9.229-10.478-13.844-15.714v5.298c0,7.139-0.164,8.6,3.795,9.436v0.431h-8.166v-0.431
			c3.686-0.402,3.551-3.049,3.551-9.581V53.36c0-2.876-0.436-4.001-3.904-4.805v-0.43h4.506L319.144,63.175L319.144,63.175z"/>
		<path style="fill:#00583D;" d="M341.563,54.053h-0.406c-0.521-3.253-2.324-5.582-5.604-5.582c-4.994,0-7.811,4.314-7.811,9.267
			c0,5.662,4.123,9.609,8.088,9.609c3.574,0,4.998-2.764,6.223-5.875l0.385,0.178c-0.33,1.75-0.848,3.477-1.504,5.147
			c-1.746,0.892-3.633,1.237-5.57,1.237c-5.707,0-10.787-3.452-10.787-9.954c0-5.125,3.793-10.303,11.006-10.303
			c2.076,0,4.176,0.43,5.98,1.552V54.053L341.563,54.053z"/>
		<path style="fill:#00583D;" d="M349.839,62.976c0,3.163,0.055,3.738,3.631,4.284v0.431h-9.422v-0.431
			c3.277-0.461,3.299-1.325,3.383-4.284V52.847c-0.084-2.968-0.105-3.831-3.383-4.291v-0.43h9.422v0.43
			c-3.576,0.545-3.631,1.123-3.631,4.291v4.168h10.977v-4.168c0-3.168-0.059-3.746-3.635-4.291v-0.43h9.424v0.43
			c-3.283,0.46-3.303,1.323-3.387,4.291v10.129c0.084,2.959,0.104,3.823,3.387,4.284v0.431h-9.424v-0.431
			c3.576-0.545,3.635-1.121,3.635-4.284v-4.751h-10.977V62.976L349.839,62.976z"/>
		<path style="fill:#00583D;" d="M378.563,48.471c4.174,0,6.996,4.832,7.072,9.927c0,4.113-1.992,8.949-6.5,8.949
			c-4.916,0-7.154-5.696-7.154-10.157C371.981,53.303,373.866,48.471,378.563,48.471L378.563,48.471z M378.78,47.779
			c-5.709,0-9.965,3.974-9.965,10.099c0,6.217,4.234,10.158,9.992,10.158c5.734,0,9.996-3.941,9.996-10.129
			C388.804,52.785,385.774,47.779,378.78,47.779L378.78,47.779z"/>
		<path style="fill:#00583D;" d="M396.886,48.668c2.867-0.03,5.68,1.324,5.68,4.692c0,3.196-3.057,4.463-5.68,4.489V48.668
			L396.886,48.668z M394.485,62.976c-0.082,2.959-0.113,3.823-3.387,4.284v0.431h9.584v-0.431c-3.74-0.545-3.797-1.121-3.797-4.284
			v-4.639c1.91,0.348,2.893-0.343,3.986,2.048c0.574,1.238,1.994,3.764,3.797,5.754c1.611,1.777,3.734,1.547,6.627,1.548
			l0.063-0.437c-4.545-0.753-7.123-5.689-9.232-9.572l-0.135-0.203c1.965-0.919,3.383-2.301,3.383-4.72
			c0-1.381-0.545-4.92-7.422-4.688l-6.664,0.228v0.405c3.059,0.284,3.197,0.946,3.197,5.352V62.976L394.485,62.976z"/>
		<path style="fill:#00583D;" d="M420.616,58.167h-5.41l2.57-7.483L420.616,58.167L420.616,58.167z M420.97,59.49
			c0.709,2.013,1.75,4.72,1.75,5.927c0,1.297-1.148,1.613-2.104,1.842v0.431h8.025v-0.431c-2.182-0.434-2.648-1.267-3.385-3.37
			l-6.01-16.86c-0.57,0.72-1.252,1.236-1.99,1.556c0.295,0.546-0.055,1.234-0.297,1.981l-1.641,4.693l-3.09,8.49
			c-0.842,2.242-1.09,2.819-3.52,3.508v0.431h7.479v-0.431c-1.221-0.203-3.109-0.203-3.109-1.959c0-1.379,1.201-4.371,1.666-5.81
			H420.97L420.97,59.49z"/>
		<path style="fill:#00583D;" d="M448.085,65.477v0.432c-2.918,1.292-5.164,2.127-8.248,2.127c-5.625,0-10.4-3.594-10.4-9.896
			c-0.002-6.388,5.293-10.361,11.004-10.361c2.158,0,4.338,0.404,6.393,1.125l-0.109,5.002h-0.355
			c-0.686-3.338-2.869-5.435-6.176-5.435c-4.721,0-7.588,3.796-7.588,8.603c0,5.699,3.85,9.982,9.279,9.982
			c2.492,0,2.457-0.69,2.457-2.56v-1.723c0-3.198-0.787-3.541-3.68-3.916v-0.43h8.078v0.43c-1.906,0.402-1.994,1.208-1.994,2.991
			v3.627H448.085L448.085,65.477z"/>
		<path style="fill:#00583D;" d="M450.108,67.259c3.271-0.461,3.305-1.325,3.385-4.284V52.847c-0.08-2.968-0.113-3.831-3.385-4.291
			v-0.43h14.662l-0.33,4.43h-0.41c-0.189-3.712-2.729-3.74-5.484-3.74h-2.65v8.199h2.842c2.045,0,3.604-0.171,3.904-2.645h0.408
			v6.414h-0.408c-0.359-2.535-1.859-2.559-3.904-2.559h-2.842v4.721c0,1.696-0.385,4.059,4.098,4.059
			c3.441,0,5.135-1.385,5.813-5.01h0.414c-0.027,2.187-0.383,3.971-0.93,5.696h-15.182V67.259L450.108,67.259z"/>
		<g>
			<path style="fill:#00583D;" d="M177.77,10.091v0.536c-3.268,0.361-3.485,2.375-3.628,7.116l-0.215,7.863
				c-0.109,4.636-2.084,9.341-10.058,9.341c-11.136,0-9.987-8.043-9.987-10.918v-8.045c-0.105-3.699-0.141-4.774-4.453-5.356v-0.536
				h12.394v0.536c-4.705,0.688-4.779,1.406-4.779,5.356v7.361c0,0.684-1.149,9.953,8.693,9.953c7.758,0,7.003-7.398,7.003-11.781
				v-3.774c0-4.563-0.358-6.646-5.387-7.116v-0.536H177.77L177.77,10.091z"/>
			<path style="fill:#00583D;" d="M196.56,29.796l-0.144-10.508c-0.028-2.733-0.778-3.542-4.031-4.117v-0.434h7.86v0.434
				c-1.985,0.26-2.36,1.352-2.589,3.223c-0.402,3.167-0.259,10.11-0.115,16.384l-0.376,0.09
				c-4.606-5.445-9.734-10.482-14.599-15.721v5.296c0,7.14-0.175,8.611,4.001,9.446v0.432h-8.61V33.89
				c3.887-0.407,3.743-3.055,3.743-9.59v-4.32c0-2.879-0.462-4.005-4.117-4.809v-0.434h4.749L196.56,29.796L196.56,29.796z"/>
			<path style="fill:#00583D;" d="M207.762,29.601c0.084,2.963,0.111,3.829,3.57,4.29v0.432h-9.676V33.89
				c3.457-0.461,3.483-1.327,3.571-4.29V19.463c-0.087-2.967-0.114-3.832-3.571-4.292v-0.434h9.676v0.434
				c-3.459,0.46-3.485,1.325-3.57,4.292V29.601L207.762,29.601z"/>
			<path style="fill:#00583D;" d="M233.306,14.738v0.434c-2.705,0.229-3.543,2.507-5.328,6.68l-5.499,13.131h-0.404l-6.51-15.58
				c-0.864-2.102-1.526-3.946-4.087-4.231v-0.434h9.127v0.434c-4.062,0.403-2.734,2.707-1.986,4.52l4.608,11.118l3.398-8.149
				c2.477-5.904,2.937-6.859-1.441-7.488v-0.434H233.306L233.306,14.738z"/>
			<path style="fill:#00583D;" d="M233.306,33.89c3.455-0.461,3.487-1.327,3.572-4.29V19.463c-0.084-2.967-0.117-3.832-3.572-4.292
				v-0.434h15.466l-0.346,4.437h-0.433c-0.2-3.718-2.877-3.743-5.788-3.743h-2.794v8.203h2.996c2.159,0,3.8-0.17,4.12-2.647h0.431
				v6.426h-0.431c-0.377-2.537-1.96-2.566-4.12-2.566h-2.996v4.724c0,1.698-0.401,4.063,4.321,4.063
				c3.629,0,5.415-1.385,6.133-5.015h0.433c-0.027,2.19-0.401,3.976-0.979,5.704h-16.013V33.89L233.306,33.89z"/>
			<path style="fill:#00583D;" d="M258.388,15.284c3.023-0.028,5.989,1.326,5.989,4.696c0,3.195-3.224,4.464-5.989,4.493V15.284
				L258.388,15.284z M255.854,29.601c-0.085,2.963-0.117,3.829-3.571,4.29v0.432h10.108V33.89c-3.946-0.547-4.004-1.125-4.004-4.29
				v-4.638c2.019,0.347,3.052-0.347,4.207,2.041c0.602,1.243,2.103,3.773,4.001,5.763c1.67,1.731,3.918,1.642,6.97,1.783l0.086-0.43
				c-4.754-0.976-7.515-5.93-9.734-9.819l-0.145-0.204c2.075-0.92,3.574-2.299,3.574-4.723c0-1.38-0.577-4.924-7.835-4.694
				l-7.025,0.232v0.399c3.225,0.291,3.368,0.956,3.368,5.359V29.601L255.854,29.601z"/>
			<path style="fill:#00583D;" d="M283.992,19.803h-0.461c-0.462-2.33-1.21-4.576-4.061-4.576c-1.843,0-3.371,1.27-3.371,3.167
				c0,4.982,9.074,4.81,9.074,10.63c0,3.713-3.687,5.64-7,5.64c-1.756,0-3.597-0.519-5.067-1.464l-0.837-4.896h0.521
				c0.722,2.762,2.649,5.497,5.816,5.497c2.132,0,3.804-1.265,3.804-3.516c0-5.125-8.815-4.663-8.815-10.422
				c0-3.368,3.34-5.5,6.424-5.5c1.468,0,2.936,0.434,4.203,1.124L283.992,19.803L283.992,19.803z"/>
			<path style="fill:#00583D;" d="M293.58,29.601c0.089,2.963,0.119,3.829,3.573,4.29v0.432h-9.677V33.89
				c3.453-0.461,3.483-1.327,3.571-4.29V19.463c-0.088-2.967-0.119-3.832-3.571-4.292v-0.434h9.677v0.434
				c-3.454,0.46-3.484,1.325-3.573,4.292V29.601L293.58,29.601z"/>
			<path style="fill:#00583D;" d="M316.534,13.848h0.233l0.399,5.383l-0.399,0.087c-1.011-3.572-2.594-3.717-5.908-3.717h-1.728
				v13.305c0,3.574,0.175,4.522,4.032,4.983v0.432h-10.598V33.89c3.86-0.461,4.032-1.41,4.032-4.983V15.602h-1.729
				c-3.309,0-4.896,0.145-5.901,3.717l-0.403-0.087l0.403-5.383h0.228l0.288,0.257c0.724,0.665,0.835,0.633,1.785,0.633h13.191
				c0.951,0,1.065,0.031,1.786-0.633L316.534,13.848L316.534,13.848z"/>
			<path style="fill:#00583D;" d="M335.718,14.738v0.434c-2.509,0.201-3.748,1.584-4.962,3.656l-3.397,6.742v3.255
				c0.06,3.307,0.119,4.487,3.804,5.066v0.432h-10.134V33.89c3.68-0.579,3.739-1.759,3.799-5.066v-2.309l-2.996-6.536
				c-1.099-2.419-1.875-4.463-4.781-4.809v-0.434h7.953v0.434c-2.368,0.316-2.049,1.266-1.126,3.282l2.876,6.221l2.505-4.752
				c1.789-3.339,1.558-4.435-0.949-4.751v-0.434H335.718L335.718,14.738z"/>
		</g>
		<g>
			<path style="fill:#00583D;" d="M348.326,19.388c1.157,0,1.272,1.729,1.272,2.563c0,3.628-2.397,9.675-4.382,9.675
				c-1.125,0-1.208-1.728-1.208-2.535C344.008,25.898,346.255,19.388,348.326,19.388L348.326,19.388z M348.876,18.813
				c-4.347,0-7.054,5.818-7.054,9.619c0,2.162,0.632,3.771,2.963,3.771c4.32,0,6.999-5.588,6.999-9.331
				C351.783,20.915,351.237,18.813,348.876,18.813L348.876,18.813z"/>
			<path style="fill:#00583D;" d="M361.837,20.368l-0.288,1.15h-3.83l-1.931,8.612c-0.4,1.784-1.123,4.692-2.164,6.161
				c-0.802,1.097-3.017,2.543-4.4,2.543c-2.139,0-2.652-2.021-1.181-2.886c1.122,0.777,2.102,1.551,2.851,1.551
				c1.414,0,2.16-3.825,2.392-5.01l2.245-10.971h-2.391l0.146-0.635l2.561-0.717c0.921-3.63,3.425-8.295,7.748-8.295
				c1.322,0,2.788,0.574,2.788,2.1c0,1.153-0.806,1.761-1.748,2.133l-0.233-0.173v-0.663c0-1.178-0.489-2.534-1.905-2.534
				c-2.558,0-3.942,5.098-4.489,7.634H361.837L361.837,20.368z"/>
		</g>
		<g>
			<path style="fill:#00583D;" d="M165.094,55.787h-7.123l3.385-9.356L165.094,55.787L165.094,55.787z M165.563,57.447
				c0.941,2.517,2.309,5.899,2.309,7.414c0,1.622-1.508,2.019-2.777,2.303v0.541h10.594v-0.541c-2.885-0.539-3.5-1.583-4.469-4.21
				l-7.916-21.097c-0.756,0.899-1.658,1.545-2.631,1.945c0.393,0.681-0.078,1.547-0.396,2.482l-2.16,5.869l-4.068,10.617
				c-1.109,2.809-1.439,3.532-4.64,4.393v0.541h9.864v-0.541c-1.625-0.253-4.107-0.253-4.107-2.449c0-1.726,1.582-5.468,2.193-7.268
				H165.563L165.563,57.447z"/>
			<path style="fill:#00583D;" d="M175.218,67.258c3.453-0.461,3.486-1.327,3.57-4.29V52.832c-0.084-2.967-0.117-3.832-3.57-4.292
				v-0.434h9.682v0.434c-3.461,0.46-3.576,1.325-3.576,4.292v9.443c0,1.438,0,2.966,0.428,4.346l3.52,0.263
				c4.373,0.316,5.1-1.035,7.313-4.723l0.373,0.173l-1.639,5.356h-16.1V67.258L175.218,67.258z"/>
			<path style="fill:#00583D;" d="M204.599,58.157h-5.705l2.701-7.488L204.599,58.157L204.599,58.157z M204.97,59.483
				c0.746,2.014,1.842,4.72,1.842,5.932c0,1.296-1.213,1.615-2.213,1.843v0.432h8.455v-0.432c-2.293-0.433-2.783-1.267-3.568-3.369
				l-6.332-16.878c-0.604,0.721-1.328,1.237-2.104,1.558c0.316,0.545-0.057,1.235-0.32,1.984l-1.723,4.695l-3.254,8.495
				c-0.891,2.248-1.148,2.825-3.715,3.515v0.432h7.895v-0.432c-1.307-0.204-3.287-0.204-3.287-1.959
				c0-1.382,1.262-4.376,1.754-5.816H204.97L204.97,59.483z"/>
			<path style="fill:#00583D;" d="M224.753,53.171h-0.463c-0.455-2.33-1.213-4.576-4.064-4.576c-1.838,0-3.367,1.27-3.367,3.167
				c0,4.982,9.074,4.81,9.074,10.63c0,3.713-3.689,5.64-6.998,5.64c-1.754,0-3.602-0.519-5.068-1.464l-0.836-4.896h0.518
				c0.719,2.762,2.652,5.497,5.816,5.497c2.137,0,3.799-1.265,3.799-3.516c0-5.125-8.809-4.663-8.809-10.422
				c0-3.368,3.342-5.5,6.426-5.5c1.463,0,2.939,0.434,4.201,1.124L224.753,53.171L224.753,53.171z"/>
			<path style="fill:#00583D;" d="M234.341,62.969c0.08,2.963,0.115,3.829,3.834,4.29v0.432h-9.939v-0.432
				c3.457-0.461,3.484-1.327,3.57-4.29V52.832c-0.086-2.967-0.113-3.832-3.57-4.292v-0.434h9.158v0.434
				c-2.938,0.46-2.973,1.325-3.053,4.292V62.969L234.341,62.969z M247.356,48.106v0.434c-3.281,0.346-5.467,3.135-7.6,5.355
				l-2.709,2.881l5.844,6.45c1.756,1.931,3.83,3.458,6.432,4.031l-0.117,0.435c-3.539,0.012-5.33,0.159-8.582-3.172l-5.883-6.391
				l4.641-5.04c3.023-3.397,2.445-4.349,0.52-4.55v-0.434H247.356L247.356,48.106z"/>
			<path style="fill:#00583D;" d="M259.306,58.157h-5.699l2.709-7.488L259.306,58.157L259.306,58.157z M259.685,59.483
				c0.746,2.014,1.838,4.72,1.838,5.932c0,1.296-1.205,1.615-2.217,1.843v0.432h8.473v-0.432c-2.309-0.433-2.797-1.267-3.574-3.369
				l-6.334-16.878c-0.602,0.721-1.324,1.237-2.105,1.558c0.318,0.545-0.057,1.235-0.314,1.984l-1.723,4.695l-3.258,8.495
				c-0.895,2.248-1.154,2.825-3.715,3.515l0.127,0.298l1.918,0.134h5.844v-0.432c-1.295-0.204-3.279-0.204-3.279-1.959
				c0-1.382,1.266-4.376,1.752-5.816H259.685L259.685,59.483z"/>
		</g>
		<g>
			<path style="fill:#00583D;" d="M470.54,64.229v0.413h-1.164v3.049h-0.475v-3.049h-1.168v-0.413H470.54z"/>
			<path style="fill:#00583D;" d="M470.956,64.229h0.678l0.994,2.928l0.99-2.928h0.666v3.461h-0.451v-2.047
				c0-0.071,0.004-0.184,0.006-0.352c0.002-0.16,0.002-0.338,0.002-0.521l-0.986,2.919h-0.461l-1.002-2.919v0.105
				c0,0.082,0.004,0.211,0.006,0.387c0.008,0.175,0.012,0.301,0.012,0.38v2.047h-0.453V64.229z"/>
		</g>
	</g>
	<g>
		<g>
			<polygon style="fill:#FFC425;" points="135.147,36.17 31.187,77.57 135.147,77.57 			"/>
			<g>
				<g>
					<g>
						<path style="fill:#00583D;" d="M0,0v77.57h48.578c13.175-0.688,26.393-2.23,39.187-5.531
							c10.407-2.684,21.082-6.827,29.905-13.122c0.576-0.057,1.193-0.097,1.905-0.097c1.49,0,2.501,0.177,3.515,0.352
							c-0.023-0.048-0.588-1.285-1.5-3.31c5.916-5.028,10.704-11.226,13.559-18.864V0H0z"/>
					</g>
				</g>
			</g>
		</g>
		<g>
			<g>
				<path style="fill:#FFFFFF;" d="M12.95,16.561c1.25,0.18,2.443,0.357,3.518,0.357c1.308,0,2.44-0.178,3.454-0.357
					c-0.534,7.807-0.534,19.128-0.534,20.38c0,7.509,0.236,11.679,2.621,14.599c1.905,2.382,5.779,3.872,9.533,3.872
					c1.668,0,9.771-0.358,11.738-8.698c0.953-4.054,1.013-10.785,1.013-12.277c0-2.265-0.239-14.002-0.834-17.875
					c0.774,0.18,1.43,0.357,2.802,0.357c1.311,0,1.906-0.178,2.619-0.357c-0.772,5.423-1.013,12.215-1.013,21.037
					c0,5.778-0.296,12.212-4.289,16.323c-2.502,2.622-6.314,4.71-13.109,4.71c-4.587,0-10.845-1.077-14.54-6.019
					c-2.202-2.982-2.502-6.257-2.502-11.382C13.427,25.199,13.427,24.013,12.95,16.561z"/>
				<path style="fill:#FFFFFF;" d="M71.298,42.187l-7.632-17.759l-7.444,17.759c-1.193,2.738-3.577,8.04-5.544,15.606
					c-0.713-0.117-1.308-0.352-2.44-0.352c-1.134,0-1.847,0.234-2.624,0.352c5.304-11.56,14.124-30.986,18.355-41.705
					c0.476,0.059,0.833,0.177,1.486,0.177c0.54,0,0.835-0.062,1.312-0.177c4.588,12.509,17.76,41.466,17.876,41.705
					c-1.012-0.178-2.026-0.352-3.517-0.352c-1.548,0-2.678,0.174-3.812,0.352C75.229,50.642,72.789,45.464,71.298,42.187z"/>
				<path style="fill:#FFFFFF;" d="M110.337,42.187l-7.624-17.759l-7.451,17.759c-1.189,2.738-3.574,8.04-5.542,15.606
					c-0.713-0.117-1.308-0.352-2.442-0.352c-1.129,0-1.847,0.234-2.62,0.352c5.303-11.56,14.12-30.986,18.351-41.705
					c0.479,0.059,0.836,0.177,1.491,0.177c0.535,0,0.833-0.062,1.31-0.177c4.586,12.509,17.761,41.466,17.876,41.705
					c-1.015-0.178-2.023-0.352-3.514-0.352c-1.551,0-2.684,0.174-3.815,0.352C114.271,50.642,111.828,45.464,110.337,42.187z"/>
			</g>
			<path style="fill:#FFC425;" d="M126.635,28.255c-21.802,13.774-47.457,25.421-96.8,18.469c2.895-1.302,5.797-3.432,7.405-5.007
				c39.487,8.234,67.807-3.195,88.573-14.77C125.96,27.352,126.345,27.964,126.635,28.255z"/>
		</g>
	</g>
</g>
<g>
</g>
<g>
</g>
<g>
</g>
<g>
</g>
<g>
</g>
<g>
</g>
</svg>
